<?xml version="1.0" encoding="utf-8"?>
<!-- Generator: Adobe Illustrator 15.0.0, SVG Export Plug-In . SVG Version: 6.00 Build 0)  -->
<!DOCTYPE svg PUBLIC "-//W3C//DTD SVG 1.1//EN" "http://www.w3.org/Graphics/SVG/1.1/DTD/svg11.dtd">
<svg version="1.1" id="图层_1" xmlns="http://www.w3.org/2000/svg" xmlns:xlink="http://www.w3.org/1999/xlink" x="0px" y="0px"
	 width="100px" height="100px" viewBox="0 0 100 100" enable-background="new 0 0 100 100" xml:space="preserve">
<g>
	<defs>
		<rect id="SVGID_1_" x="9.088" y="54.688" width="81.159" height="13.799"/>
	</defs>
	<clipPath id="SVGID_2_">
		<use xlink:href="#SVGID_1_"  overflow="visible"/>
	</clipPath>
	<g clip-path="url(#SVGID_2_)">
		<defs>
			<rect id="SVGID_3_" x="9.088" y="54.688" width="81.159" height="13.799"/>
		</defs>
		<clipPath id="SVGID_4_">
			<use xlink:href="#SVGID_3_"  overflow="visible"/>
		</clipPath>
		<path clip-path="url(#SVGID_4_)" fill="#C8C9CA" d="M65.502,65.146c0.228,0.419,0.114,0.92-0.251,1.118
			c-0.365,0.199-0.845,0.019-1.072-0.4l-1.432-2.64c-0.227-0.418-0.116-0.917,0.248-1.116c0.368-0.198,0.848-0.02,1.074,0.4
			L65.502,65.146z"/>
		<g opacity="0.5" clip-path="url(#SVGID_4_)">
			<g>
				<defs>
					<rect id="SVGID_5_" x="63.103" y="62.026" width="1.203" height="2.094"/>
				</defs>
				<clipPath id="SVGID_6_">
					<use xlink:href="#SVGID_5_"  overflow="visible"/>
				</clipPath>
				<path clip-path="url(#SVGID_6_)" fill="#FFFFFF" d="M64.191,63.663c0.114,0.21,0.148,0.411,0.076,0.45
					c-0.071,0.038-0.222-0.1-0.334-0.311l-0.717-1.321c-0.114-0.208-0.147-0.41-0.077-0.448c0.072-0.039,0.224,0.1,0.337,0.309
					L64.191,63.663z"/>
			</g>
		</g>
		<path clip-path="url(#SVGID_4_)" fill="#E16A25" d="M63.457,64.537l0.722,1.328c0.228,0.417,0.707,0.598,1.072,0.398
			c0.365-0.198,0.479-0.698,0.251-1.114l-0.722-1.331L63.457,64.537"/>
		<path clip-path="url(#SVGID_4_)" fill="#1798AE" d="M48.355,55.56l1.1-0.8l1.865,1.254l-0.869,0.613H37.197V66.88h11.276
			l1.136-0.783l1.902,1.263l-0.882,0.648H37.197v0.041h-2.881V54.951l2.881,0.278v0.33H48.355z M47.184,58.439l1.059-0.702
			l1.785,1.183l-0.822,0.66h-3.828v1.608c0,0.134-0.008,0.264-0.023,0.39h2.809l1.003-0.716l1.784,1.216l-0.841,0.643h-3.753
			c1.273,0.704,2.588,1.523,3.963,2.484l-2.444,1.344c-1.09-1.111-2.2-2.11-3.344-2.984c-1.053,1.295-3.04,2.313-5.968,3.054
			l-0.958-1.02c2.142-0.788,3.565-1.752,4.271-2.878h-3.947l-0.397-1.143h4.783c0.043-0.201,0.06-0.414,0.06-0.621V59.58H41.18
			c-0.743,0.67-1.586,1.169-2.535,1.488l-1.079-0.652c0.579-0.528,1.096-1.125,1.535-1.786c0.416-0.621,0.701-1.219,0.866-1.776
			l2.889,0.651c-0.19,0.341-0.393,0.657-0.615,0.935H47.184z"/>
		<path clip-path="url(#SVGID_4_)" fill="#1798AE" d="M62.609,58.061l3.1,0.718c-0.198,0.348-0.395,0.677-0.613,0.986h1.884
			l1.287-1.002l2.467,1.561l-0.598,0.486v4.179c0,1.717-0.315,2.697-0.946,2.927c-0.38,0.253-1.152,0.385-2.308,0.385h-1.192
			c0-0.685-0.773-1.11-2.328-1.29l0.142-0.873l2.575,0.162c0.43,0,0.682-0.015,0.747-0.048c0.258-0.107,0.384-0.238,0.384-0.407
			v-4.869h-3.098c-0.96,0.996-2.088,1.721-3.387,2.171l-1.019-0.614c0.59-0.534,1.106-1.131,1.559-1.782
			c-1.354,0.989-2.763,1.874-4.189,2.672c0.91-0.147,1.812-0.309,2.71-0.482l0.595,0.948c-1.688,0.711-3.72,1.406-6.103,2.077
			l-1.267-2.015c0.401-0.045,0.802-0.084,1.197-0.134c0.584-0.425,1.136-0.862,1.628-1.284c-0.814,0.131-1.569,0.241-2.249,0.319
			l-0.615-1.78h0.538c0.977-1.033,1.64-2.11,1.991-3.228l0.604,0.144V57.02H53.07l-0.366-1.108h3.4v-1.224l3.123,0.278v0.945h4.421
			v-1.208l3.162,0.276v0.932h1.053l1.074-0.715l1.753,1.184l-0.843,0.64h-3.037v0.809l-3.162,0.305V57.02h-4.421v0.909l-2.349,0.233
			l1.712,0.379c-0.769,0.978-1.613,1.782-2.537,2.434c0.576-0.048,1.118-0.101,1.634-0.152c0.448-0.458,0.86-0.912,1.231-1.363
			l2.536,0.996c0.04-0.045,0.071-0.099,0.119-0.161C62.074,59.519,62.421,58.771,62.609,58.061 M60.245,65.022l0.596,0.941
			c-1.767,0.864-3.892,1.704-6.364,2.522l-1.254-2.02C55.547,66.137,57.886,65.66,60.245,65.022"/>
		<path clip-path="url(#SVGID_4_)" fill="#1798AE" d="M73.671,55.072l3.039,0.683c-0.228,0.606-0.47,1.168-0.728,1.694h0.906
			l1.112-0.728l1.231,0.686c0.222-0.454,0.402-0.904,0.562-1.36l1.81,0.405c-0.02,0.133-0.036,0.251-0.063,0.365h1.772
			c-0.387-0.433-0.783-0.835-1.188-1.181l1.263-0.702c0.875,0.301,1.808,0.702,2.791,1.193l-1.231,0.689h1.963l1.04-0.771
			l2.298,1.36l-1.052,0.382l-1.131,1.499l0.871,0.509l-0.603,0.557v2.411L85.6,63.011v-0.338h-3.002v1.113h3.248l1.239-0.788
			l2.361,1.403l-0.712,0.561v2.878l-2.747,0.275v-0.59h-3.39v0.428l-2.79,0.27v-8.805l-1.187-0.479l-1.387,1.057l-0.923-0.281
			l0.538-1.203h-1.401c-0.702,1.282-1.454,2.316-2.272,3.114l-1.077-0.461C72.877,59.219,73.401,57.189,73.671,55.072
			 M74.636,60.164l2.826,0.274v4.936c0.539-0.138,1.065-0.307,1.581-0.495l0.592,0.951c-1.155,0.806-2.537,1.599-4.169,2.366
			l-1.277-2.029c0.154-0.03,0.306-0.058,0.447-0.092V60.164z M82.598,59.27h2.947l0.997-0.667l0.333-0.674h-5.64
			c-0.106,0.294-0.218,0.589-0.351,0.888l1.713,0.15V59.27z M85.6,60.392h-3.002v1.176H85.6V60.392z M85.987,64.896h-3.39v1.546
			h3.39V64.896z"/>
		<path clip-path="url(#SVGID_4_)" fill="#1798AE" d="M13.907,68.079H9.088v-1.121c0.349,0,0.628-0.124,0.836-0.389
			c0.188-0.259,0.295-0.578,0.295-0.981v-6.496c0-0.846-0.378-1.268-1.131-1.268v-1.133c1.001-0.204,1.919-0.729,2.747-1.567h0.915
			v10.464c0,0.403,0.097,0.723,0.302,0.981c0.208,0.265,0.499,0.389,0.856,0.389V68.079z"/>
		<path clip-path="url(#SVGID_4_)" fill="#1798AE" d="M22.398,68.079h-4.826v-1.121c0.354,0,0.627-0.124,0.832-0.389
			c0.193-0.259,0.299-0.578,0.299-0.981v-6.496c0-0.846-0.375-1.268-1.131-1.268v-1.133c1.006-0.204,1.929-0.729,2.75-1.567h0.913
			v10.464c0,0.403,0.1,0.723,0.296,0.981c0.208,0.265,0.501,0.389,0.867,0.389V68.079z"/>
		<path clip-path="url(#SVGID_4_)" fill="#1798AE" d="M30.878,68.079h-4.817v-1.121c0.352,0,0.632-0.124,0.825-0.389
			c0.203-0.259,0.3-0.578,0.3-0.981v-6.496c0-0.846-0.373-1.268-1.125-1.268v-1.133c1.003-0.204,1.921-0.729,2.754-1.567h0.904
			v10.464c0,0.403,0.103,0.723,0.305,0.981c0.206,0.265,0.497,0.389,0.854,0.389V68.079z"/>
	</g>
</g>
<g>
	<defs>
		<rect id="SVGID_7_" x="26.201" y="31.513" width="46.934" height="18.005"/>
	</defs>
	<clipPath id="SVGID_8_">
		<use xlink:href="#SVGID_7_"  overflow="visible"/>
	</clipPath>
	<path clip-path="url(#SVGID_8_)" fill="#E16A25" d="M73.135,40.517c0,4.971-3.902,9-8.711,9h-29.51c-4.812,0-8.713-4.029-8.713-9
		c0-4.974,3.901-9.004,8.713-9.004h29.51C69.232,31.513,73.135,35.543,73.135,40.517"/>
	<path clip-path="url(#SVGID_8_)" fill="#FFFFFF" d="M41.43,44.562c0,1.333-0.941,2.414-2.104,2.414
		c-1.158,0-2.097-1.081-2.097-2.414v-8.39c0-1.331,0.939-2.409,2.097-2.409c1.163,0,2.104,1.078,2.104,2.409V44.562z"/>
	<path clip-path="url(#SVGID_8_)" fill="#1796AE" d="M37.228,40.342v4.23c0,1.323,0.939,2.403,2.097,2.403
		c1.165,0,2.104-1.08,2.104-2.403v-4.23H37.228"/>
	<path clip-path="url(#SVGID_8_)" fill="#FFFFFF" d="M51.773,44.533c0,1.329-0.946,2.409-2.103,2.409
		c-1.161,0-2.105-1.081-2.105-2.409v-8.387c0-1.333,0.945-2.412,2.105-2.412c1.156,0,2.103,1.079,2.103,2.412V44.533z"/>
	<path clip-path="url(#SVGID_8_)" fill="#1796AE" d="M47.565,40.342v4.23c0,1.323,0.945,2.403,2.103,2.403
		c1.159,0,2.105-1.08,2.105-2.403v-4.23H47.565"/>
	<path clip-path="url(#SVGID_8_)" fill="#FFFFFF" d="M62.112,44.562c0,1.333-0.942,2.414-2.105,2.414c-1.159,0-2.1-1.081-2.1-2.414
		v-8.39c0-1.331,0.94-2.409,2.1-2.409c1.163,0,2.105,1.078,2.105,2.409V44.562z"/>
	<path clip-path="url(#SVGID_8_)" fill="#1796AE" d="M57.906,40.342v4.23c0,1.323,0.942,2.403,2.101,2.403
		c1.163,0,2.103-1.08,2.103-2.403v-4.23H57.906"/>
</g>
</svg>
